<?xml version="1.0" encoding="UTF-8" standalone="no"?>
<!-- Created with Inkscape (http://www.inkscape.org/) -->

<svg
   width="210mm"
   height="297mm"
   viewBox="0 0 210 297"
   version="1.1"
   id="svg5"
   xml:space="preserve"
   inkscape:version="1.2.1 (9c6d41e410, 2022-07-14)"
   sodipodi:docname="desenho-1.svg"
   xmlns:inkscape="http://www.inkscape.org/namespaces/inkscape"
   xmlns:sodipodi="http://sodipodi.sourceforge.net/DTD/sodipodi-0.dtd"
   xmlns="http://www.w3.org/2000/svg"
   xmlns:svg="http://www.w3.org/2000/svg"
   xmlns:rdf="http://www.w3.org/1999/02/22-rdf-syntax-ns#"
   xmlns:cc="http://creativecommons.org/ns#"
   xmlns:dc="http://purl.org/dc/elements/1.1/"><title
     id="title27801">kart</title><sodipodi:namedview
     id="namedview7"
     pagecolor="#ffffff"
     bordercolor="#111111"
     borderopacity="1"
     inkscape:showpageshadow="0"
     inkscape:pageopacity="0"
     inkscape:pagecheckerboard="1"
     inkscape:deskcolor="#d1d1d1"
     inkscape:document-units="mm"
     showgrid="true"
     inkscape:zoom="13.455443"
     inkscape:cx="454.72303"
     inkscape:cy="181.19061"
     inkscape:window-width="1680"
     inkscape:window-height="997"
     inkscape:window-x="-8"
     inkscape:window-y="-8"
     inkscape:window-maximized="1"
     inkscape:current-layer="layer1"><inkscape:grid
       type="xygrid"
       id="grid182"
       spacingx="2.6458333"
       spacingy="2.6458333" /></sodipodi:namedview><defs
     id="defs2" /><g
     inkscape:label="Camada 1"
     inkscape:groupmode="layer"
     id="layer1"><path
       id="rect27534"
       style="fill:#000000;fill-opacity:0.264762;stroke-width:0.1;stroke-linecap:round"
       d="m 55.5625,52.916667 v 7.9375 h 5.291667 V 63.5 l 29.104165,-10e-7 0,-2.645833 7.937501,10e-7 v -7.9375 z"
       sodipodi:nodetypes="ccccccccc"
       inkscape:export-filename="g27480.png"
       inkscape:export-xdpi="96"
       inkscape:export-ydpi="96" /><g
       id="g27407"><path
         id="path12773"
         style="fill:#22002b;stroke-width:0.02;stroke-linecap:round"
         d="m 55.562497,42.333332 h 10e-7 v 2.645834 2.645833 2.645833 2.645834 h 1e-6 2.645833 2.645837 2.64583 v -2.645834 -2.645833 -2.645833 -2.645834 0 h -2.64583 -2.645838 z"
         sodipodi:nodetypes="ccccccccccccccccccc" /><g
         id="g21571"
         transform="translate(1.2000008e-6,-2.6458319)"><rect
           style="fill:#ffffff;fill-opacity:0.0380952;stroke-width:0.1;stroke-linecap:round"
           id="rect16457"
           width="7.9375"
           height="2.6458333"
           x="55.5625"
           y="50.270832"
           ry="2.2204472e-17" /><rect
           style="fill:#ffffff;fill-opacity:0;stroke-width:0.1;stroke-linecap:round"
           id="rect16459"
           width="7.9375"
           height="2.6458333"
           x="55.5625"
           y="52.916668"
           ry="2.2204472e-17" /><rect
           style="fill:#ffffff;fill-opacity:0.0609524;stroke-width:0.1;stroke-linecap:round"
           id="rect16461"
           width="7.9375"
           height="2.6458333"
           x="55.5625"
           y="47.625"
           ry="2.2204472e-17" /><rect
           style="fill:#ffffff;fill-opacity:0.171429;stroke-width:0.1;stroke-linecap:round"
           id="rect17189"
           width="7.9375"
           height="2.6458333"
           x="55.5625"
           y="44.979168"
           ry="2.2204472e-17" /></g></g><g
       id="g27399"
       transform="translate(31.750001)"><path
         id="path27381"
         style="fill:#22002b;stroke-width:0.02;stroke-linecap:round"
         d="m 55.562497,42.333332 h 10e-7 v 2.645834 2.645833 2.645833 2.645834 h 1e-6 2.645833 2.645837 2.64583 v -2.645834 -2.645833 -2.645833 -2.645834 0 h -2.64583 -2.645838 z"
         sodipodi:nodetypes="ccccccccccccccccccc" /><g
         id="g27391"
         transform="translate(1.2000008e-6,-2.6458319)"><rect
           style="fill:#ffffff;fill-opacity:0.0380952;stroke-width:0.1;stroke-linecap:round"
           id="rect27383"
           width="7.9375"
           height="2.6458333"
           x="55.5625"
           y="50.270832"
           ry="2.2204472e-17" /><rect
           style="fill:#ffffff;fill-opacity:0;stroke-width:0.1;stroke-linecap:round"
           id="rect27385"
           width="7.9375"
           height="2.6458333"
           x="55.5625"
           y="52.916668"
           ry="2.2204472e-17" /><rect
           style="fill:#ffffff;fill-opacity:0.0609524;stroke-width:0.1;stroke-linecap:round"
           id="rect27387"
           width="7.9375"
           height="2.6458333"
           x="55.5625"
           y="47.625"
           ry="2.2204472e-17" /><rect
           style="fill:#ffffff;fill-opacity:0.171429;stroke-width:0.1;stroke-linecap:round"
           id="rect27389"
           width="7.9375"
           height="2.6458333"
           x="55.5625"
           y="44.979168"
           ry="2.2204472e-17" /></g></g><rect
       style="fill:#b3b3b3;stroke-width:0.02;stroke-linecap:round"
       id="rect1096-12-7-1"
       width="2.6458344"
       height="2.6458344"
       x="79.375"
       y="44.979164"
       ry="1.1102236e-17" /><rect
       style="fill:#b3b3b3;stroke-width:0.02;stroke-linecap:round"
       id="rect1096-12-7-2"
       width="2.6458344"
       height="2.6458344"
       x="68.791664"
       y="44.979164"
       ry="1.1102236e-17" /><rect
       style="fill:#4d4d4d;fill-opacity:1;stroke-width:0.1;stroke-linecap:round"
       id="rect12580"
       width="13.229166"
       height="7.9375"
       x="68.791656"
       y="37.041664" /><path
       id="rect730"
       style="fill:#000000;stroke-width:0.768103"
       d="M 74.083333 13.229167 L 74.083333 15.875 L 71.4375 15.875 L 68.791667 15.875 L 66.145833 15.875 L 63.5 15.875 L 60.854167 15.875 L 60.854167 18.520833 L 60.854167 21.166667 L 60.854167 23.8125 L 60.854167 26.458333 L 63.5 26.458333 L 63.5 29.104167 L 63.5 31.75 L 63.5 34.395833 L 63.5 37.041667 L 60.854167 37.041667 L 60.854167 39.6875 L 60.854167 42.333333 L 60.854167 44.979167 L 63.5 44.979167 L 63.5 47.625 L 66.145833 47.625 L 68.791667 47.625 L 71.4375 47.625 L 71.4375 44.979167 L 68.791667 44.979167 L 66.145833 44.979167 L 66.145833 42.333333 L 68.791667 42.333333 L 71.4375 42.333333 L 71.4375 39.6875 L 71.4375 37.041667 L 68.791667 37.041667 L 66.145833 37.041667 L 66.145833 34.395833 L 66.145833 31.75 L 66.145833 29.104167 L 66.145833 26.458333 L 66.145833 23.8125 L 63.5 23.8125 L 63.5 21.166667 L 63.5 18.520833 L 66.145833 18.520833 L 66.145833 21.166667 L 68.791667 21.166667 L 68.791667 23.8125 L 71.4375 23.8125 L 71.4375 21.166667 L 71.4375 18.520833 L 74.083333 18.520833 L 74.083333 21.166667 L 74.083333 23.8125 L 76.729167 23.8125 L 76.729167 21.166667 L 76.729167 18.520833 L 79.375 18.520833 L 79.375 21.166667 L 79.375 23.8125 L 82.020833 23.8125 L 82.020833 21.166667 L 84.666667 21.166667 L 87.3125 21.166667 L 87.3125 23.8125 L 84.666667 23.8125 L 84.666667 26.458333 L 84.666667 29.104167 L 84.666667 31.75 L 84.666667 34.395833 L 84.666667 37.041667 L 82.020833 37.041667 L 82.020833 39.6875 L 79.375 39.6875 L 79.375 42.333333 L 82.020833 42.333333 L 84.666667 42.333333 L 84.666667 39.6875 L 87.3125 39.6875 L 87.3125 42.333333 L 84.666667 42.333333 L 84.666667 44.979167 L 82.020833 44.979167 L 79.375 44.979167 L 79.375 47.625 L 82.020833 47.625 L 84.666667 47.625 L 87.3125 47.625 L 87.3125 44.979167 L 89.958333 44.979167 L 89.958333 42.333333 L 89.958333 39.6875 L 89.958333 37.041667 L 87.3125 37.041667 L 87.3125 34.395833 L 87.3125 31.75 L 87.3125 29.104167 L 87.3125 26.458333 L 89.958333 26.458333 L 89.958333 23.8125 L 89.958333 21.166667 L 89.958333 18.520833 L 87.3125 18.520833 L 84.666667 18.520833 L 82.020833 18.520833 L 82.020833 15.875 L 82.020833 13.229167 L 79.375 13.229167 L 76.729167 13.229167 L 74.083333 13.229167 z M 74.083333 47.625 L 76.729167 47.625 L 74.083333 47.625 z " /><rect
       style="fill:#ffe680;fill-opacity:1;stroke-width:0.768103"
       id="rect754-5-0"
       width="2.6458325"
       height="2.6458409"
       x="63.499985"
       y="39.6875" /><rect
       style="fill:#ffe680;fill-opacity:1;stroke-width:0.768103"
       id="rect754-5-4"
       width="2.6458325"
       height="2.6458409"
       x="82.020851"
       y="42.333321" /><rect
       style="fill:#ffe680;fill-opacity:1;stroke-width:0.768103"
       id="rect754-5-5"
       width="2.6458325"
       height="2.6458409"
       x="66.145828"
       y="42.333324" /><path
       id="rect856-2"
       style="fill:#ffe680;fill-opacity:1;stroke-width:3.649"
       d="m 76.729159,15.875 v 2.645833 2.645834 2.645833 h -2.64583 v -2.645833 -2.645834 h -2.64584 v 2.645834 2.645833 h -2.64583 v -2.645833 h -2.64583 v -2.645834 h -2.64584 v 2.645834 2.645833 h 2.64584 v 2.645833 h 2.64583 2.64583 2.64584 2.64583 2.64583 2.64584 2.64583 V 23.8125 h 2.64583 v -2.645833 h -2.64583 -2.64583 V 23.8125 h -2.64584 V 21.166667 18.520833 15.875 Z" /><rect
       style="fill:#d38d5f;fill-opacity:1;stroke-width:3.649"
       id="rect892"
       width="2.6458333"
       height="2.6458333"
       x="79.374985"
       y="42.333328" /><rect
       style="fill:#d38d5f;fill-opacity:1;stroke-width:3.649"
       id="rect894"
       width="2.6458333"
       height="2.6458333"
       x="68.791656"
       y="42.333328" /><path
       id="rect904"
       style="fill:#666666;fill-opacity:1;stroke-width:5.16047"
       d="m 71.437499,42.333332 v 5.291667 h 2.64583 2.64583 2.64584 v -5.291667 h -2.64584 -2.64583 z"
       sodipodi:nodetypes="ccccccccc" /><path
       id="rect834"
       style="fill:#666666;fill-opacity:1;stroke-width:0.768103"
       d="m 66.145829,26.458333 v 2.645833 2.645833 2.645834 2.645833 h 2.64583 v 2.645833 h 2.64584 7.9375 2.64583 v -2.645833 h 2.64583 v -2.645833 -2.645834 -2.645833 -2.645833 h -2.64583 -2.64583 -2.64584 -2.64583 -2.64583 -2.64584 z" /><rect
       style="fill:#ffe680;fill-opacity:1;stroke-width:0.768103"
       id="rect754-5-8"
       width="2.6458325"
       height="2.6458409"
       x="84.666687"
       y="39.687492" /><path
       id="rect1094"
       style="fill:#550000;stroke-width:0.0632454;stroke-linecap:round"
       d="m 63.499999,47.624999 v 5.291666 h -5.291666 v 5.291668 h 5.291666 l 23.812504,8e-6 h 5.291666 v -5.291668 h -5.291666 v -5.291666 z"
       sodipodi:nodetypes="ccccccccccc" /><rect
       style="fill:#b3b3b3;stroke-width:0.04;stroke-linecap:round"
       id="rect1096-12-4"
       width="5.2916689"
       height="5.2916689"
       x="68.791664"
       y="52.916664"
       ry="2.2204472e-17" /><rect
       style="fill:#b3b3b3;stroke-width:0.04;stroke-linecap:round"
       id="rect1096-12-7-9"
       width="5.2916689"
       height="5.2916689"
       x="63.499996"
       y="47.625"
       ry="2.2204472e-17" /><rect
       style="fill:#b3b3b3;stroke-width:0.04;stroke-linecap:round"
       id="rect1096-12-7-9-8"
       width="5.2916689"
       height="5.2916689"
       x="63.499996"
       y="42.333332"
       ry="2.2204472e-17" /><rect
       style="fill:#b3b3b3;stroke-width:0.04;stroke-linecap:round"
       id="rect1096-12-7-9-4"
       width="5.2916689"
       height="5.2916689"
       x="82.020836"
       y="42.333332"
       ry="2.2204472e-17" /><rect
       style="fill:#b3b3b3;stroke-width:0.04;stroke-linecap:round"
       id="rect1096-12-7-5"
       width="5.2916689"
       height="5.2916689"
       x="82.020836"
       y="47.625"
       ry="2.2204472e-17" /><rect
       style="fill:#b3b3b3;stroke-width:0.04;stroke-linecap:round"
       id="rect1096-12-7"
       width="5.2916689"
       height="5.2916689"
       x="76.729164"
       y="52.916664"
       ry="2.2204472e-17" /><g
       id="g27415"><path
         id="rect1096-9"
         style="fill:#22002b;stroke-width:0.02;stroke-linecap:round"
         d="m 47.624999,47.624999 v 2.645833 2.645834 2.645833 2.645833 2.645834 h 2.645834 2.645833 2.645833 2.645834 v -2.645834 -2.645833 -2.645833 -2.645834 -2.645833 h -2.645834 -2.645833 -2.645833 z" /><rect
         style="fill:#ffffff;fill-opacity:0.0380952;stroke-width:0.11547;stroke-linecap:round"
         id="rect18643"
         width="10.583333"
         height="2.6458366"
         x="47.625"
         y="52.916664"
         ry="2.2204499e-17" /><rect
         style="fill:#ffffff;fill-opacity:0.0152381;stroke-width:0.11547;stroke-linecap:round"
         id="rect18645"
         width="10.583333"
         height="2.6458294"
         x="47.625"
         y="55.562496"
         ry="2.2204438e-17" /><rect
         style="fill:#ffffff;fill-opacity:0.0609524;stroke-width:0.11547;stroke-linecap:round"
         id="rect18647"
         width="10.583333"
         height="2.6458352"
         x="47.625"
         y="50.270832"
         ry="2.2204487e-17" /><rect
         style="fill:#ffffff;fill-opacity:0.171429;stroke-width:0.11547;stroke-linecap:round"
         id="rect18649"
         width="10.583333"
         height="2.6458378"
         x="47.625"
         y="47.624996"
         ry="2.2204509e-17" /><rect
         style="fill:#ffffff;fill-opacity:0;stroke-width:0.11547;stroke-linecap:round"
         id="rect21565"
         width="10.583333"
         height="2.6458294"
         x="47.625"
         y="58.208332"
         ry="2.2204438e-17" /></g><g
       id="g27429"
       transform="translate(44.979167)"><path
         id="path27417"
         style="fill:#22002b;stroke-width:0.02;stroke-linecap:round"
         d="m 47.624999,47.624999 v 2.645833 2.645834 2.645833 2.645833 2.645834 h 2.645834 2.645833 2.645833 2.645834 v -2.645834 -2.645833 -2.645833 -2.645834 -2.645833 h -2.645834 -2.645833 -2.645833 z" /><rect
         style="fill:#ffffff;fill-opacity:0.0380952;stroke-width:0.11547;stroke-linecap:round"
         id="rect27419"
         width="10.583333"
         height="2.6458366"
         x="47.625"
         y="52.916664"
         ry="2.2204499e-17" /><rect
         style="fill:#ffffff;fill-opacity:0.0152381;stroke-width:0.11547;stroke-linecap:round"
         id="rect27421"
         width="10.583333"
         height="2.6458294"
         x="47.625"
         y="55.562496"
         ry="2.2204438e-17" /><rect
         style="fill:#ffffff;fill-opacity:0.0609524;stroke-width:0.11547;stroke-linecap:round"
         id="rect27423"
         width="10.583333"
         height="2.6458352"
         x="47.625"
         y="50.270832"
         ry="2.2204487e-17" /><rect
         style="fill:#ffffff;fill-opacity:0.171429;stroke-width:0.11547;stroke-linecap:round"
         id="rect27425"
         width="10.583333"
         height="2.6458378"
         x="47.625"
         y="47.624996"
         ry="2.2204509e-17" /><rect
         style="fill:#ffffff;fill-opacity:0;stroke-width:0.11547;stroke-linecap:round"
         id="rect27427"
         width="10.583333"
         height="2.6458294"
         x="47.625"
         y="58.208332"
         ry="2.2204438e-17" /></g><path
       id="path287"
       style="fill:#000000;fill-opacity:0.264762;stroke-width:0.1;stroke-linecap:round"
       d="m 113.77092,52.916668 v 7.9375 h 5.29169 v 2.645833 L 148.16694,63.5 v -2.645833 l 7.93755,1e-6 v -7.9375 z"
       sodipodi:nodetypes="ccccccccc"
       inkscape:export-filename="g27480.png"
       inkscape:export-xdpi="96"
       inkscape:export-ydpi="96" /><g
       id="g301"
       transform="matrix(0.66666707,0,0,1,76.72914,-7.6176757e-7)"><path
         id="path289"
         style="fill:#22002b;stroke-width:0.02;stroke-linecap:round"
         d="m 55.562497,42.333332 h 10e-7 v 2.645834 2.645833 2.645833 2.645834 h 1e-6 2.645833 2.645837 2.64583 v -2.645834 -2.645833 -2.645833 -2.645834 0 h -2.64583 -2.645838 z"
         sodipodi:nodetypes="ccccccccccccccccccc" /><g
         id="g299"
         transform="translate(1.2000008e-6,-2.6458319)"><rect
           style="fill:#ffffff;fill-opacity:0.0380952;stroke-width:0.1;stroke-linecap:round"
           id="rect291"
           width="7.9375"
           height="2.6458333"
           x="55.5625"
           y="50.270832"
           ry="2.2204472e-17" /><rect
           style="fill:#ffffff;fill-opacity:0;stroke-width:0.1;stroke-linecap:round"
           id="rect293"
           width="7.9375"
           height="2.6458333"
           x="55.5625"
           y="52.916668"
           ry="2.2204472e-17" /><rect
           style="fill:#ffffff;fill-opacity:0.0609524;stroke-width:0.1;stroke-linecap:round"
           id="rect295"
           width="7.9375"
           height="2.6458333"
           x="55.5625"
           y="47.625"
           ry="2.2204472e-17" /><rect
           style="fill:#ffffff;fill-opacity:0.171429;stroke-width:0.1;stroke-linecap:round"
           id="rect297"
           width="7.9375"
           height="2.6458333"
           x="55.5625"
           y="44.979168"
           ry="2.2204472e-17" /></g></g><g
       id="g315"
       transform="matrix(0.33333245,0,0,1,127.00005,0)"><path
         id="path303"
         style="fill:#22002b;stroke-width:0.02;stroke-linecap:round"
         d="m 55.562497,42.333332 h 10e-7 v 2.645834 2.645833 2.645833 2.645834 h 1e-6 2.645833 2.645837 2.64583 v -2.645834 -2.645833 -2.645833 -2.645834 0 h -2.64583 -2.645838 z"
         sodipodi:nodetypes="ccccccccccccccccccc" /><g
         id="g313"
         transform="translate(1.2000008e-6,-2.6458319)"><rect
           style="fill:#ffffff;fill-opacity:0.0380952;stroke-width:0.1;stroke-linecap:round"
           id="rect305"
           width="7.9375"
           height="2.6458333"
           x="55.5625"
           y="50.270832"
           ry="2.2204472e-17" /><rect
           style="fill:#ffffff;fill-opacity:0;stroke-width:0.1;stroke-linecap:round"
           id="rect307"
           width="7.9375"
           height="2.6458333"
           x="55.5625"
           y="52.916668"
           ry="2.2204472e-17" /><rect
           style="fill:#ffffff;fill-opacity:0.0609524;stroke-width:0.1;stroke-linecap:round"
           id="rect309"
           width="7.9375"
           height="2.6458333"
           x="55.5625"
           y="47.625"
           ry="2.2204472e-17" /><rect
           style="fill:#ffffff;fill-opacity:0.171429;stroke-width:0.1;stroke-linecap:round"
           id="rect311"
           width="7.9375"
           height="2.6458333"
           x="55.5625"
           y="44.979168"
           ry="2.2204472e-17" /></g></g><rect
       style="fill:#b3b3b3;stroke-width:0.02;stroke-linecap:round"
       id="rect317"
       width="2.6458344"
       height="2.6458344"
       x="137.58334"
       y="44.979164"
       ry="1.1102236e-17" /><rect
       style="fill:#b3b3b3;stroke-width:0.02;stroke-linecap:round"
       id="rect319"
       width="2.6458344"
       height="2.6458344"
       x="127"
       y="44.979164"
       ry="1.1102236e-17" /><rect
       style="fill:#472b4f;fill-opacity:1;stroke-width:0.141421;stroke-linecap:round"
       id="rect607"
       width="5.2916775"
       height="2.6458333"
       x="145.52083"
       y="42.333332" /><g
       id="g343"
       transform="translate(21.166665,-18.520834)"><rect
         style="fill:#4d4d4d;fill-opacity:1;stroke-width:0.1;stroke-linecap:round"
         id="rect321"
         width="13.229166"
         height="7.9375"
         x="105.83333"
         y="55.5625" /><path
         id="path323"
         style="fill:#000000;stroke-width:0.768103"
         d="m 111.125,31.75 v 2.645833 h -2.64583 -2.64584 -2.64583 -2.64583 -2.645837 v 2.645833 2.645834 2.645833 h 2.645837 V 39.6875 37.041666 h 2.64583 V 39.6875 h 2.64583 v 2.645833 h 2.64584 V 39.6875 37.041666 h 2.64583 v 2.645834 2.645833 h 2.64583 V 39.6875 37.041666 h 2.64584 v 2.645834 2.645833 h 2.64583 V 39.6875 h 2.64583 2.64584 v 2.645833 h -2.64584 v 2.645833 2.645834 2.645833 2.645833 2.645834 h -2.64583 v 2.645833 h -2.64583 v 2.645833 0 h 2.64583 2.64583 v -2.645834 h 2.64584 v 2.645834 h -2.64584 v 2.645833 h -2.64583 -2.64583 v 2.645834 h 2.64583 2.64583 2.64584 V 63.499999 L 127,63.5 v -2.645834 -2.645833 -2.645834 l -2.64583,10e-7 V 52.916666 50.270833 47.625 44.979166 H 127 V 42.333333 39.6875 37.041666 h -2.64583 -2.64584 -2.64583 V 34.395833 31.75 h -2.64583 -2.64584 z m -10.58333,10.583333 v 2.645833 2.645834 2.645833 2.645833 2.645834 l -2.645838,-10e-7 10e-7,2.645834 V 60.854166 63.5 l 2.645837,-10e-7 v 2.645834 h 2.64583 2.64583 2.64584 v -2.645834 h -2.64584 -2.64583 v -2.645833 h -2.64583 5.29166 2.64584 V 58.208333 55.5625 h -2.64584 -2.64583 V 52.916666 50.270833 47.625 44.979166 42.333333 Z m 10.58333,23.8125 h 2.64583 z"
         sodipodi:nodetypes="ccccccccccccccccccccccccccccccccccccccccccccccccccccccccccccccccccccccccccccccccccccccccccccccccccccccccccccccccccc" /><rect
         style="fill:#ffe680;fill-opacity:1;stroke-width:0.768103"
         id="rect325"
         width="2.6458325"
         height="2.6458409"
         x="100.54166"
         y="58.208336" /><rect
         style="fill:#ffe680;fill-opacity:1;stroke-width:0.768103"
         id="rect327"
         width="2.6458325"
         height="2.6458409"
         x="119.06252"
         y="60.854156" /><rect
         style="fill:#ffe680;fill-opacity:1;stroke-width:0.768103"
         id="rect329"
         width="2.6458325"
         height="2.6458409"
         x="103.1875"
         y="60.85416" /><path
         id="path331"
         style="fill:#ffe680;fill-opacity:1;stroke-width:3.649"
         d="m 113.77083,34.395834 v 2.645833 2.645834 2.645833 H 111.125 v -2.645833 -2.645834 h -2.64584 v 2.645834 2.645833 h -2.64583 v -2.645833 h -2.64583 v -2.645834 h -2.64584 v 2.645834 2.645833 h 2.64584 v 2.645833 h 2.64583 2.64583 2.64584 2.64583 2.64583 2.64584 2.64583 v -2.645833 h 2.64583 v -2.645833 h -2.64583 -2.64583 v 2.645833 h -2.64584 v -2.645833 -2.645834 -2.645833 z" /><rect
         style="fill:#d38d5f;fill-opacity:1;stroke-width:3.649"
         id="rect333"
         width="2.6458333"
         height="2.6458333"
         x="116.41666"
         y="60.854164" /><rect
         style="fill:#d38d5f;fill-opacity:1;stroke-width:3.649"
         id="rect335"
         width="2.6458333"
         height="2.6458333"
         x="105.83333"
         y="60.854164" /><path
         id="path337"
         style="fill:#666666;fill-opacity:1;stroke-width:5.16047"
         d="m 108.47917,60.854166 v 5.291667 h 2.64583 2.64583 2.64584 v -5.291667 h -2.64584 -2.64583 z"
         sodipodi:nodetypes="ccccccccc" /><path
         id="path339"
         style="fill:#666666;fill-opacity:1;stroke-width:0.768103"
         d="M 103.1875,44.979167 V 47.625 50.270833 52.916667 55.5625 h 2.64583 v 2.645833 h 2.64584 7.9375 2.64583 V 55.5625 h 2.64583 V 52.916667 50.270833 47.625 44.979167 h -2.64583 -2.64583 -2.64584 -2.64583 -2.64583 -2.64584 z" /><rect
         style="fill:#ffe680;fill-opacity:1;stroke-width:0.768103"
         id="rect341"
         width="2.6458325"
         height="2.6458409"
         x="121.70836"
         y="58.208328" /></g><path
       id="path345"
       style="fill:#550000;stroke-width:0.0632454;stroke-linecap:round"
       d="m 121.70834,47.624999 v 5.291666 h -5.29167 v 5.291668 h 5.29167 l 23.8125,8e-6 h 5.29167 v -5.291668 h -5.29167 v -5.291666 z"
       sodipodi:nodetypes="ccccccccccc" /><rect
       style="fill:#b3b3b3;stroke-width:0.04;stroke-linecap:round"
       id="rect347"
       width="5.2916689"
       height="5.2916689"
       x="127"
       y="52.916664"
       ry="2.2204472e-17" /><rect
       style="fill:#b3b3b3;stroke-width:0.04;stroke-linecap:round"
       id="rect349"
       width="5.2916689"
       height="5.2916689"
       x="121.70834"
       y="47.625"
       ry="2.2204472e-17" /><rect
       style="fill:#b3b3b3;stroke-width:0.04;stroke-linecap:round"
       id="rect351"
       width="5.2916689"
       height="5.2916689"
       x="121.70834"
       y="42.333332"
       ry="2.2204472e-17" /><rect
       style="fill:#b3b3b3;stroke-width:0.04;stroke-linecap:round"
       id="rect353"
       width="5.2916689"
       height="5.2916689"
       x="140.22917"
       y="42.333332"
       ry="2.2204472e-17" /><rect
       style="fill:#b3b3b3;stroke-width:0.04;stroke-linecap:round"
       id="rect355"
       width="5.2916689"
       height="5.2916689"
       x="140.22917"
       y="47.625"
       ry="2.2204472e-17" /><rect
       style="fill:#b3b3b3;stroke-width:0.04;stroke-linecap:round"
       id="rect357"
       width="5.2916689"
       height="5.2916689"
       x="134.9375"
       y="52.916664"
       ry="2.2204472e-17" /><g
       id="g371"
       transform="translate(58.208336)"><path
         id="path359"
         style="fill:#22002b;stroke-width:0.02;stroke-linecap:round"
         d="m 47.624999,47.624999 v 2.645833 2.645834 2.645833 2.645833 2.645834 h 2.645834 2.645833 2.645833 2.645834 v -2.645834 -2.645833 -2.645833 -2.645834 -2.645833 h -2.645834 -2.645833 -2.645833 z" /><rect
         style="fill:#ffffff;fill-opacity:0.0380952;stroke-width:0.11547;stroke-linecap:round"
         id="rect361"
         width="10.583333"
         height="2.6458366"
         x="47.625"
         y="52.916664"
         ry="2.2204499e-17" /><rect
         style="fill:#ffffff;fill-opacity:0.0152381;stroke-width:0.11547;stroke-linecap:round"
         id="rect363"
         width="10.583333"
         height="2.6458294"
         x="47.625"
         y="55.562496"
         ry="2.2204438e-17" /><rect
         style="fill:#ffffff;fill-opacity:0.0609524;stroke-width:0.11547;stroke-linecap:round"
         id="rect365"
         width="10.583333"
         height="2.6458352"
         x="47.625"
         y="50.270832"
         ry="2.2204487e-17" /><rect
         style="fill:#ffffff;fill-opacity:0.171429;stroke-width:0.11547;stroke-linecap:round"
         id="rect367"
         width="10.583333"
         height="2.6458378"
         x="47.625"
         y="47.624996"
         ry="2.2204509e-17" /><rect
         style="fill:#ffffff;fill-opacity:0;stroke-width:0.11547;stroke-linecap:round"
         id="rect369"
         width="10.583333"
         height="2.6458294"
         x="47.625"
         y="58.208332"
         ry="2.2204438e-17" /></g><rect
       style="fill:#b3b3b3;fill-opacity:1;stroke-width:0.1;stroke-linecap:round"
       id="rect1727"
       width="5.2916665"
       height="5.2916665"
       x="148.16667"
       y="44.979168" /><g
       id="g385"
       transform="translate(103.1875)"><path
         id="path373"
         style="fill:#22002b;stroke-width:0.02;stroke-linecap:round"
         d="m 47.624999,47.624999 v 2.645833 2.645834 2.645833 2.645833 2.645834 h 2.645834 2.645833 2.645833 2.645834 v -2.645834 -2.645833 -2.645833 -2.645834 -2.645833 h -2.645834 -2.645833 -2.645833 z" /><rect
         style="fill:#ffffff;fill-opacity:0.0380952;stroke-width:0.11547;stroke-linecap:round"
         id="rect375"
         width="10.583333"
         height="2.6458366"
         x="47.625"
         y="52.916664"
         ry="2.2204499e-17" /><rect
         style="fill:#ffffff;fill-opacity:0.0152381;stroke-width:0.11547;stroke-linecap:round"
         id="rect377"
         width="10.583333"
         height="2.6458294"
         x="47.625"
         y="55.562496"
         ry="2.2204438e-17" /><rect
         style="fill:#ffffff;fill-opacity:0.0609524;stroke-width:0.11547;stroke-linecap:round"
         id="rect379"
         width="10.583333"
         height="2.6458352"
         x="47.625"
         y="50.270832"
         ry="2.2204487e-17" /><rect
         style="fill:#ffffff;fill-opacity:0.171429;stroke-width:0.11547;stroke-linecap:round"
         id="rect381"
         width="10.583333"
         height="2.6458378"
         x="47.625"
         y="47.624996"
         ry="2.2204509e-17" /><rect
         style="fill:#ffffff;fill-opacity:0;stroke-width:0.11547;stroke-linecap:round"
         id="rect383"
         width="10.583333"
         height="2.6458294"
         x="47.625"
         y="58.208332"
         ry="2.2204438e-17" /></g><rect
       style="fill:#472b4f;fill-opacity:1;stroke-width:0.1;stroke-linecap:round"
       id="rect1491"
       width="2.6458333"
       height="2.6458333"
       x="150.8125"
       y="42.333328" /><rect
       style="fill:#2f0f37;fill-opacity:1;stroke-width:0.1;stroke-linecap:round"
       id="rect1491-6"
       width="2.6458333"
       height="2.6458333"
       x="150.8125"
       y="44.97916" /><rect
       style="fill:#22002b;fill-opacity:1;stroke-width:0.1;stroke-linecap:round"
       id="rect1491-6-2"
       width="2.6458333"
       height="2.6458333"
       x="148.16667"
       y="50.270828" /><rect
       style="fill:#22002b;fill-opacity:1;stroke-width:0.1;stroke-linecap:round"
       id="rect1491-6-2-9"
       width="2.6458333"
       height="2.6458333"
       x="119.06251"
       y="50.270828" /></g><metadata
     id="metadata27799"><rdf:RDF><cc:Work
         rdf:about=""><dc:title>kart</dc:title></cc:Work></rdf:RDF></metadata></svg>
